<?xml version="1.0" standalone="no"?>
<!DOCTYPE svg PUBLIC "-//W3C//DTD SVG 20010904//EN"
 "http://www.w3.org/TR/2001/REC-SVG-20010904/DTD/svg10.dtd">
<svg version="1.0" xmlns="http://www.w3.org/2000/svg"
 width="88.000000pt" height="88.000000pt" viewBox="0 0 88.000000 88.000000"
 preserveAspectRatio="xMidYMid meet">

<g transform="translate(0.000000,88.000000) scale(0.100000,-0.100000)"
fill="#000000" stroke="none">
<path d="M0 440 l0 -440 200 0 200 0 -7 48 c-3 26 -7 49 -9 50 -1 2 -18 -2
-38 -9 -45 -16 -53 -8 -40 41 15 55 0 73 -22 27 -10 -20 -24 -37 -31 -37 -7 0
-13 -5 -13 -12 0 -6 -3 -8 -7 -5 -7 7 27 129 38 137 4 3 11 21 17 41 8 30 6
45 -9 79 -29 65 -27 70 36 70 51 0 55 -2 61 -27 4 -16 16 -46 28 -68 11 -22
23 -51 26 -65 6 -30 24 -29 25 3 0 13 6 22 15 22 11 0 16 -16 20 -59 5 -52 2
-65 -19 -95 -24 -36 -42 -74 -55 -118 l-7 -23 235 0 236 0 0 86 c0 47 -5 95
-11 106 -8 15 -8 19 0 14 6 -4 11 -3 11 3 0 18 -43 39 -95 46 -79 10 -78 10
-51 54 22 34 23 40 9 45 -9 4 -26 -1 -39 -9 -23 -15 -30 -10 -25 19 1 5 -4 13
-10 17 -10 6 -10 11 0 23 9 11 10 16 2 16 -6 0 -11 7 -11 15 0 9 -7 27 -16 40
-9 13 -13 29 -10 34 7 10 -1 12 -65 13 l-37 2 18 30 c9 17 29 35 43 40 39 14
70 -21 71 -80 0 -27 4 -43 10 -41 6 2 10 14 8 25 -2 16 1 20 11 16 18 -6 32
39 19 62 -15 26 -2 71 24 83 14 6 24 19 24 31 0 29 -19 62 -31 55 -5 -4 -9 0
-9 9 0 8 6 16 13 19 21 7 3 16 -41 19 -23 2 -42 5 -42 8 1 3 15 14 33 25 17
11 33 28 35 37 3 16 -24 17 -357 18 l-361 0 0 -440z m527 423 c-4 -3 -1 -13 6
-22 11 -14 10 -14 -5 -2 -16 12 -16 31 -1 31 4 0 3 -3 0 -7z m103 -29 c14 -8
17 -13 8 -10 -9 3 -18 1 -20 -4 -2 -5 -14 0 -28 10 -23 18 -23 20 -5 19 11 0
31 -7 45 -15z m-156 -9 c3 -8 1 -15 -4 -15 -6 0 -10 7 -10 15 0 8 2 15 4 15 2
0 6 -7 10 -15z m-44 -4 c0 -5 -10 -11 -22 -14 -22 -6 -22 -6 -4 8 23 17 26 18
26 6z m139 -105 c26 -9 37 -22 51 -59 l18 -48 -36 7 c-21 4 -45 11 -54 15 -9
5 -29 9 -45 9 -45 0 -57 13 -33 35 13 11 18 25 14 37 -4 15 0 18 23 17 15 0
43 -6 62 -13z m-369 -92 c0 -19 -28 -30 -42 -16 -8 8 -8 15 1 26 14 17 41 10
41 -10z m-80 -9 c0 -3 -9 -5 -20 -5 -11 0 -20 7 -20 15 0 13 4 14 20 5 11 -6
20 -13 20 -15z m60 -50 c-7 -8 -8 -15 -2 -15 5 0 12 -14 16 -30 3 -17 7 -33 8
-37 5 -11 -56 -23 -66 -13 -6 6 -19 10 -30 10 -17 0 -14 6 17 34 20 18 37 41
37 50 0 9 7 16 16 16 14 0 14 -3 4 -15z m268 -43 c-38 -4 -44 2 -30 33 l12 26
24 -28 25 -28 -31 -3z m37 30 c-3 -3 -11 0 -18 7 -9 10 -8 11 6 5 10 -3 15 -9
12 -12z m50 -1 c-8 -13 -35 -15 -35 -2 0 5 8 11 18 13 21 5 26 2 17 -11z
m-182 -11 c3 -12 0 -20 -8 -20 -7 0 -15 9 -18 20 -3 12 0 20 8 20 7 0 15 -9
18 -20z m-53 -35 c0 -8 -4 -15 -10 -15 -5 0 -10 7 -10 15 0 8 5 15 10 15 6 0
10 -7 10 -15z m50 -16 c0 -10 -2 -19 -4 -19 -11 0 -36 33 -31 40 9 15 35 -1
35 -21z m150 17 c0 -3 -4 -8 -10 -11 -5 -3 -10 -1 -10 4 0 6 5 11 10 11 6 0
10 -2 10 -4z m-15 -46 c4 -6 -7 -10 -27 -10 -25 0 -29 3 -18 10 19 13 37 13
45 0z m-251 -33 c-21 -12 -30 -1 -14 18 10 13 15 13 21 3 5 -8 2 -16 -7 -21z"/>
<path d="M760 731 c0 -5 5 -13 10 -16 6 -3 10 -2 10 4 0 5 -4 13 -10 16 -5 3
-10 2 -10 -4z"/>
<path d="M837 488 c4 -7 6 -23 4 -35 -1 -13 1 -28 6 -35 4 -7 8 -19 8 -27 0
-8 6 -16 13 -18 9 -4 12 13 12 61 0 64 -1 66 -26 66 -18 0 -23 -4 -17 -12z"/>
<path d="M784 424 c3 -9 6 -26 6 -39 0 -12 7 -26 16 -29 11 -4 14 -1 10 12 -3
9 -2 23 3 31 13 20 2 41 -21 41 -14 0 -18 -5 -14 -16z"/>
<path d="M835 351 c-3 -5 5 -17 17 -25 26 -19 37 -4 15 19 -18 17 -24 18 -32
6z"/>
<path d="M327 264 c-4 -4 -7 -17 -7 -28 1 -19 1 -20 11 -3 11 19 8 43 -4 31z"/>
</g>
</svg>
